Coordinates
nRows=149
nColumns=2
inDegrees=yes
endheader
time	ankle_angle_r	
2.625	 -5.388896	
2.6875	 -5.371094	
2.75	 -5.340576	
2.8125	 -5.374182	
2.875	 -5.334037	
2.9375	 -5.321866	
3	 -5.325317	
3.0625	 -5.310059	
3.125	 -5.390349	
3.1875	 -5.366916	
3.25	 -5.355835	
3.3125	 -5.334400	
3.375	 -5.319505	
3.4375	 -5.319868	
3.5	 -5.320231	
3.5625	 -5.279541	
3.625	 -5.407061	
3.6875	 -5.390349	
3.75	 -5.365281	
3.8125	 -5.386353	
3.875	 -5.325317	
3.9375	 -5.340576	
4	 -5.320958	
4.0625	 -5.355835	
4.125	 -5.379450	
4.1875	 -5.364009	
4.25	 -5.332583	
4.3125	 -5.363283	
4.375	 -5.317688	
4.4375	 -5.340940	
4.5	 -5.362374	
4.5625	 -5.294800	
4.625	 -5.350385	
4.6875	 -5.318596	
4.75	 -5.340576	
4.8125	 -5.358378	
4.875	 -5.264282	
4.9375	 -5.298069	
5	 -5.319505	
5.0625	 -5.285172	
5.125	 -5.391802	
5.1875	 -5.401611	
5.25	 -5.381266	
5.3125	 -5.407061	
5.375	 -5.340576	
5.4375	 -5.395435	
5.5	 -5.371094	
5.5625	 -5.348932	
5.625	 -5.416870	
5.6875	 -5.397797	
5.75	 -5.401611	
5.8125	 -5.440485	
5.875	 -5.367824	
5.9375	 -5.352747	
6	 -5.383446	
6.0625	 -5.340576	
6.125	 -5.416870	
6.1875	 -5.353474	
6.25	 -5.342756	
6.3125	 -5.367097	
6.375	 -5.296617	
6.4375	 -5.325317	
6.5	 -5.340576	
6.5625	 -5.311330	
6.625	 -5.414690	
6.6875	 -5.341485	
6.75	 -5.340576	
6.8125	 -5.416325	
6.875	 -5.340576	
6.9375	 -5.355835	
7	 -5.325317	
7.0625	 -5.309877	
7.125	 -5.416870	
7.1875	 -5.324772	
7.25	 -5.370367	
7.3125	 -5.386353	
7.375	 -5.323138	
7.4375	 -5.326589	
7.5	 -5.328224	
7.5625	 -5.279541	
7.625	 -5.396162	
7.6875	 -5.344573	
7.75	 -5.368914	
7.8125	 -5.375817	
7.875	 -5.327860	
7.9375	 -5.307334	
8	 -5.380540	
8.0625	 -5.310059	
8.125	 -5.416870	
8.1875	 -5.377996	
8.25	 -5.389986	
8.3125	 -5.386353	
8.375	 -5.314055	
8.4375	 -5.336398	
8.5	 -5.325317	
8.5625	 -5.299341	
8.625	 -5.391076	
8.6875	 -5.396707	
8.75	 -5.355835	
8.8125	 -5.360558	
8.875	 -5.330767	
8.9375	 -5.386353	
9	 -5.386353	
9.0625	 -5.340576	
9.125	 -5.380177	
9.1875	 -5.349477	
9.25	 -5.377633	
9.3125	 -5.410149	
9.375	 -5.293346	
9.4375	 -5.346570	
9.5	 -5.379086	
9.5625	 -5.447388	
9.625	 -5.599976	
9.6875	 -5.577269	
9.75	 -5.607968	
9.8125	 -5.530766	
9.875	 -5.409967	
9.9375	 -5.416870	
10	 -5.386353	
10.0625	 -5.395254	
10.125	 -5.456470	
10.1875	 -5.432129	
10.25	 -5.451021	
10.3125	 -5.437760	
10.375	 -5.365644	
10.4375	 -5.391621	
10.5	 -5.376180	
10.5625	 -5.407061	
10.625	 -5.442665	
10.6875	 -5.412329	
10.75	 -5.412510	
10.8125	 -5.414145	
10.875	 -5.340576	
10.9375	 -5.348206	
11	 -5.321684	
11.0625	 -5.344028	
11.125	 -5.398342	
11.1875	 -5.349659	
11.25	 -5.368187	
11.3125	 -5.346026	
11.375	 -5.307516	
11.4375	 -5.294800	
11.5	 -5.296979	
11.5625	 -5.325317	
11.625	 -5.374727	
11.6875	 -5.326952	
11.75	 -5.329677	
11.8125	 -5.368551	
11.875	 -5.324227	
